<?xml version="1.0" encoding="UTF-8"?>
<svg viewBox="0 0 200 200" xmlns="http://www.w3.org/2000/svg">
  <!-- 그라데이션 정의 -->
  <defs>
    <!-- 로고 배경 그라데이션 -->
    <linearGradient id="logoGradient" x1="0%" y1="0%" x2="100%" y2="100%">
      <stop offset="0%" style="stop-color:#4dabf7;stop-opacity:1" />
      <stop offset="100%" style="stop-color:#3b5bdb;stop-opacity:1" />
    </linearGradient>
    
    <!-- 뇌 아이콘 그라데이션 -->
    <linearGradient id="brainGradient" x1="0%" y1="0%" x2="100%" y2="100%">
      <stop offset="0%" style="stop-color:#ffffff;stop-opacity:1" />
      <stop offset="100%" style="stop-color:#e7f5ff;stop-opacity:1" />
    </linearGradient>
    
    <!-- ECG 파형 그라데이션 -->
    <linearGradient id="ecgGradient" x1="0%" y1="0%" x2="100%" y2="0%">
      <stop offset="0%" style="stop-color:#ff6b6b;stop-opacity:1" />
      <stop offset="100%" style="stop-color:#e03131;stop-opacity:1" />
    </linearGradient>
    
    <!-- 자극파 그라데이션 -->
    <linearGradient id="stimGradient" x1="0%" y1="0%" x2="100%" y2="0%">
      <stop offset="0%" style="stop-color:#51cf66;stop-opacity:1" />
      <stop offset="100%" style="stop-color:#2b8a3e;stop-opacity:1" />
    </linearGradient>
    
    <!-- 글로우 효과 -->
    <filter id="glow" x="-20%" y="-20%" width="140%" height="140%">
      <feGaussianBlur stdDeviation="3" result="blur" />
      <feComposite in="SourceGraphic" in2="blur" operator="over" />
    </filter>
    
    <!-- 테두리를 위한 클리핑 패스 -->
    <clipPath id="circleClip">
      <circle cx="100" cy="100" r="90" />
    </clipPath>
  </defs>
  
  <!-- 로고 배경 원 -->
  <circle cx="100" cy="100" r="90" fill="url(#logoGradient)" />
  
  <!-- 뇌 아이콘 -->
  <g transform="translate(100, 85) scale(0.6)">
    <path d="M-60,0 C-60,-33 -33,-60 0,-60 C33,-60 60,-33 60,0 C60,33 33,60 0,60 C-33,60 -60,33 -60,0 Z" fill="url(#brainGradient)" />
    
    <!-- 뇌 구분선 -->
    <path d="M0,-60 C0,-20 0,20 0,60" fill="none" stroke="#4dabf7" stroke-width="2" stroke-dasharray="5,5" opacity="0.7" />
    
    <!-- 좌측 뇌 상세 -->
    <path d="M-60,0 C-50,-30 -30,-50 0,-50" fill="none" stroke="#4dabf7" stroke-width="2" opacity="0.7" />
    <path d="M-60,0 C-50,30 -30,50 0,50" fill="none" stroke="#4dabf7" stroke-width="2" opacity="0.7" />
    <path d="M-40,-40 C-35,-20 -35,20 -40,40" fill="none" stroke="#4dabf7" stroke-width="2" opacity="0.7" />
    <path d="M-20,-50 C-15,-25 -15,25 -20,50" fill="none" stroke="#4dabf7" stroke-width="2" opacity="0.7" />
    
    <!-- 우측 뇌 상세 -->
    <path d="M0,-50 C30,-50 50,-30 60,0" fill="none" stroke="#4dabf7" stroke-width="2" opacity="0.7" />
    <path d="M0,50 C30,50 50,30 60,0" fill="none" stroke="#4dabf7" stroke-width="2" opacity="0.7" />
    <path d="M20,-50 C15,-25 15,25 20,50" fill="none" stroke="#4dabf7" stroke-width="2" opacity="0.7" />
    <path d="M40,-40 C35,-20 35,20 40,40" fill="none" stroke="#4dabf7" stroke-width="2" opacity="0.7" />
    
    <!-- 자극점 -->
    <circle cx="-30" cy="-20" r="5" fill="#ff6b6b" opacity="0.8" filter="url(#glow)">
      <animate attributeName="r" values="5;6;5" dur="1.5s" repeatCount="indefinite" />
    </circle>
    <circle cx="30" cy="-20" r="5" fill="#51cf66" opacity="0.8" filter="url(#glow)">
      <animate attributeName="r" values="5;6;5" dur="1.5s" repeatCount="indefinite" begin="0.75s" />
    </circle>
    
    <!-- 자극파 -->
    <g transform="translate(0, 0) scale(0.8)">
      <path d="M-30,-20 C-20,-25 -10,-30 0,-30 C10,-30 20,-25 30,-20" fill="none" stroke="#ff6b6b" stroke-width="2" opacity="0.7">
        <animate attributeName="d" values="M-30,-20 C-20,-25 -10,-30 0,-30 C10,-30 20,-25 30,-20;M-30,-20 C-20,-30 -10,-35 0,-35 C10,-35 20,-30 30,-20;M-30,-20 C-20,-25 -10,-30 0,-30 C10,-30 20,-25 30,-20" dur="3s" repeatCount="indefinite" />
      </path>
      <path d="M-30,-20 C-20,-15 -10,-10 0,-10 C10,-10 20,-15 30,-20" fill="none" stroke="#51cf66" stroke-width="2" opacity="0.7">
        <animate attributeName="d" values="M-30,-20 C-20,-15 -10,-10 0,-10 C10,-10 20,-15 30,-20;M-30,-20 C-20,-10 -10,-5 0,-5 C10,-5 20,-10 30,-20;M-30,-20 C-20,-15 -10,-10 0,-10 C10,-10 20,-15 30,-20" dur="3s" repeatCount="indefinite" begin="1.5s" />
      </path>
    </g>
  </g>
  
  <!-- ECG 파형 -->
  <g transform="translate(100, 140) scale(1.5)">
    <path d="M-40,0 L-35,0 L-32,-15 L-29,15 L-26,0 L-20,0 L-14,0 L-11,-15 L-8,15 L-5,0 L0,0 L6,0 L9,-15 L12,15 L15,0 L20,0 L26,0 L29,-15 L32,15 L35,0 L40,0" fill="none" stroke="url(#ecgGradient)" stroke-width="2" filter="url(#glow)">
      <animate attributeName="d" values="M-40,0 L-35,0 L-32,-15 L-29,15 L-26,0 L-20,0 L-14,0 L-11,-15 L-8,15 L-5,0 L0,0 L6,0 L9,-15 L12,15 L15,0 L20,0 L26,0 L29,-15 L32,15 L35,0 L40,0;M-40,0 L-35,0 L-32,-10 L-29,10 L-26,0 L-20,0 L-14,0 L-11,-10 L-8,10 L-5,0 L0,0 L6,0 L9,-10 L12,10 L15,0 L20,0 L26,0 L29,-10 L32,10 L35,0 L40,0;M-40,0 L-35,0 L-32,-15 L-29,15 L-26,0 L-20,0 L-14,0 L-11,-15 L-8,15 L-5,0 L0,0 L6,0 L9,-15 L12,15 L15,0 L20,0 L26,0 L29,-15 L32,15 L35,0 L40,0" dur="2s" repeatCount="indefinite" />
    </path>
  </g>
  
  <!-- 로고 테두리 효과 -->
  <circle cx="100" cy="100" r="90" fill="none" stroke="#ffffff" stroke-width="3" opacity="0.7" />
  <circle cx="100" cy="100" r="85" fill="none" stroke="#ffffff" stroke-width="1" opacity="0.5" />
  
  <!-- 자극파 아이콘 -->
  <g transform="translate(65, 30) scale(0.4)">
    <rect x="-20" y="-10" width="40" height="20" rx="5" ry="5" fill="#ffffff" opacity="0.7" />
    <path d="M-15,0 L-10,0 L-10,-8 L-5,-8 L-5,0 L0,0 L0,8 L5,8 L5,0 L10,0 L10,-8 L15,-8 L15,0" fill="none" stroke="url(#stimGradient)" stroke-width="3" filter="url(#glow)">
      <animate attributeName="d" values="M-15,0 L-10,0 L-10,-8 L-5,-8 L-5,0 L0,0 L0,8 L5,8 L5,0 L10,0 L10,-8 L15,-8 L15,0;M-15,0 L-10,0 L-10,-12 L-5,-12 L-5,0 L0,0 L0,12 L5,12 L5,0 L10,0 L10,-12 L15,-12 L15,0;M-15,0 L-10,0 L-10,-8 L-5,-8 L-5,0 L0,0 L0,8 L5,8 L5,0 L10,0 L10,-8 L15,-8 L15,0" dur="2s" repeatCount="indefinite" />
    </path>
  </g>
  
  <g transform="translate(135, 30) scale(0.4)">
    <rect x="-20" y="-10" width="40" height="20" rx="5" ry="5" fill="#ffffff" opacity="0.7" />
    <path d="M-15,0 L-10,0 L-10,-8 L-5,-8 L-5,0 L0,0 L0,8 L5,8 L5,0 L10,0 L10,-8 L15,-8 L15,0" fill="none" stroke="url(#stimGradient)" stroke-width="3" filter="url(#glow)">
      <animate attributeName="d" values="M-15,0 L-10,0 L-10,-8 L-5,-8 L-5,0 L0,0 L0,8 L5,8 L5,0 L10,0 L10,-8 L15,-8 L15,0;M-15,0 L-10,0 L-10,-12 L-5,-12 L-5,0 L0,0 L0,12 L5,12 L5,0 L10,0 L10,-12 L15,-12 L15,0;M-15,0 L-10,0 L-10,-8 L-5,-8 L-5,0 L0,0 L0,8 L5,8 L5,0 L10,0 L10,-8 L15,-8 L15,0" dur="2s" repeatCount="indefinite" begin="1s" />
    </path>
  </g>
  
  <!-- 텍스트 -->
  <g>
    <text x="100" y="170" font-family="Arial, sans-serif" font-size="10" font-weight="bold" text-anchor="middle" fill="#ffffff">ANXIETY PREVENTION</text>
    <text x="100" y="184" font-family="Arial, sans-serif" font-size="9" font-weight="bold" text-anchor="middle" fill="#ffffff">HRV ANALYSIS SYSTEM</text>
  </g>
</svg>